<svg width="105" height="36" viewBox="0 0 105 36" fill="none" xmlns="http://www.w3.org/2000/svg"><path d="M19.702 5.578v24.288H17.48v-3.005c-.947 1.153-1.995 2.017-3.188 2.594-1.172.576-2.468.864-3.846.864-2.488 0-4.586-.905-6.355-2.696-1.748-1.791-2.632-3.993-2.632-6.566 0-2.532.884-4.673 2.653-6.484 1.769-1.79 3.907-2.696 6.396-2.696 1.44 0 2.735.308 3.907.926 1.172.617 2.18 1.523 3.065 2.758V5.578h2.22zm-9.008 8.48a6.815 6.815 0 0 0-3.476.927 6.666 6.666 0 0 0-2.53 2.593 6.976 6.976 0 0 0-.945 3.54c0 1.235.308 2.409.946 3.54a6.976 6.976 0 0 0 2.55 2.635c1.07.618 2.221.947 3.434.947a7.13 7.13 0 0 0 3.517-.926 6.424 6.424 0 0 0 2.55-2.532c.597-1.07.885-2.264.885-3.602 0-2.017-.659-3.725-1.995-5.084-1.337-1.358-2.982-2.038-4.936-2.038z" fill="#000"/><path d="M10.447 31.8c-2.879 0-5.367-1.05-7.403-3.149C1.008 26.573 0 24.021 0 21.056c0-2.923 1.028-5.454 3.085-7.513 2.056-2.079 4.545-3.128 7.445-3.128 1.665 0 3.208.37 4.586 1.09.308.165.596.35.904.536V4.096h5.183v27.252H16.02v-1.173c-.329.226-.678.411-1.048.596-1.378.68-2.9 1.03-4.525 1.03zm.247-16.26c-.987 0-1.892.226-2.735.72-.843.474-1.48 1.153-1.974 2.038-.515.906-.761 1.811-.761 2.82 0 .988.246 1.894.76 2.82.515.906 1.173 1.585 2.016 2.079 1.707 1.008 3.702.988 5.45 0 .864-.494 1.522-1.132 1.974-1.956.473-.843.7-1.79.7-2.86 0-1.647-.515-2.965-1.584-4.056-1.008-1.07-2.283-1.605-3.846-1.605zM33.09 11.877c2.694 0 4.936.988 6.704 2.923 1.604 1.79 2.427 3.89 2.427 6.34 0 2.449-.843 4.59-2.55 6.421-1.707 1.832-3.887 2.738-6.56 2.738-2.694 0-4.895-.906-6.581-2.738-1.707-1.832-2.55-3.972-2.55-6.422 0-2.428.802-4.528 2.426-6.319 1.748-1.955 3.99-2.943 6.684-2.943zm0 2.223c-1.872 0-3.476.7-4.833 2.079-1.357 1.379-2.015 3.067-2.015 5.022 0 1.276.308 2.45.925 3.54.617 1.091 1.44 1.935 2.489 2.532 1.048.597 2.2.885 3.434.885 1.254 0 2.406-.288 3.434-.885 1.05-.597 1.872-1.44 2.489-2.532a7.11 7.11 0 0 0 .925-3.54c0-1.976-.678-3.643-2.036-5.022-1.337-1.4-2.94-2.08-4.812-2.08z" fill="#000"/><path d="M33.09 31.801c-3.106 0-5.676-1.09-7.671-3.211-1.954-2.1-2.962-4.61-2.962-7.43 0-2.8.946-5.25 2.797-7.308 2.057-2.284 4.69-3.437 7.815-3.437 3.126 0 5.738 1.153 7.794 3.417 1.851 2.058 2.797 4.528 2.797 7.328 0 2.82-.987 5.33-2.961 7.43-1.933 2.12-4.504 3.211-7.61 3.211zm0-16.22c-1.46 0-2.694.536-3.764 1.627-1.07 1.111-1.604 2.408-1.604 3.993 0 1.008.247 1.934.74 2.82a4.964 4.964 0 0 0 1.934 1.976 5.505 5.505 0 0 0 5.408 0c.823-.474 1.44-1.112 1.933-1.977a5.61 5.61 0 0 0 .74-2.82c0-1.584-.534-2.881-1.603-3.992-1.09-1.112-2.324-1.627-3.784-1.627zM55.198 14.243l-1.44 1.503c-1.213-1.174-2.385-1.75-3.537-1.75-.74 0-1.357.247-1.892.72-.514.474-.781 1.05-.781 1.688 0 .577.226 1.112.637 1.627.432.535 1.337 1.132 2.715 1.852 1.666.864 2.817 1.708 3.414 2.511.596.824.884 1.73.884 2.758 0 1.441-.514 2.655-1.522 3.664-1.008 1.009-2.283 1.503-3.784 1.503a6.786 6.786 0 0 1-2.9-.659 6.206 6.206 0 0 1-2.282-1.811l1.419-1.606c1.151 1.297 2.365 1.956 3.66 1.956.905 0 1.666-.289 2.304-.865.637-.576.946-1.256.946-2.038a2.61 2.61 0 0 0-.638-1.729c-.411-.494-1.357-1.111-2.838-1.873-1.584-.823-2.653-1.626-3.229-2.408a4.548 4.548 0 0 1-.864-2.717c0-1.338.453-2.429 1.358-3.314.905-.885 2.056-1.317 3.434-1.317 1.666-.062 3.29.74 4.936 2.305z" fill="#000"/><path d="M49.913 31.801a8.088 8.088 0 0 1-3.538-.803 7.928 7.928 0 0 1-2.817-2.243l-.761-.968L46.128 24l1.11 1.256c.865.967 1.708 1.44 2.551 1.44.535 0 .946-.164 1.316-.473.412-.391.473-.7.473-.947 0-.288-.082-.535-.288-.782-.082-.103-.575-.576-2.365-1.503-1.81-.947-3.043-1.873-3.763-2.881-.761-1.05-1.131-2.264-1.131-3.582 0-1.75.617-3.21 1.81-4.384 1.192-1.153 2.694-1.729 4.462-1.729 1.995 0 3.99.926 5.903 2.779l1.069 1.029-3.517 3.623-1.07-1.03c-1.357-1.317-2.611-1.708-3.372-1.008-.267.247-.308.432-.308.597 0 .082 0 .308.308.679.144.185.638.659 2.242 1.482 1.912.988 3.187 1.955 3.928 2.943a6.11 6.11 0 0 1 1.172 3.644c0 1.832-.658 3.416-1.954 4.713-1.254 1.276-2.879 1.935-4.791 1.935zM66.59 9.345h2.304v25.173h-2.303V9.345z" fill="#000"/><path d="M70.375 7.863H65.11v28.138h5.265V7.863zM82.117 5.125c.515 0 .946.185 1.317.556.37.37.534.803.534 1.317 0 .515-.185.947-.534 1.297-.37.37-.802.556-1.317.556-.493 0-.946-.186-1.295-.556-.37-.37-.556-.803-.556-1.297 0-.514.186-.947.556-1.317a1.71 1.71 0 0 1 1.295-.556zm-1.13 7.204h2.262v17.516h-2.263V12.33z" fill="#000"/><path d="M84.73 31.348h-5.204v-20.48h5.203v20.48zm-2.612-21.036c-.905 0-1.707-.35-2.345-.988a3.235 3.235 0 0 1-.966-2.347c0-.905.328-1.729.987-2.367 1.275-1.296 3.434-1.276 4.71 0 .637.638.966 1.462.966 2.367 0 .906-.33 1.709-.987 2.347-.638.659-1.46.988-2.365.988zm0-3.705c-.103 0-.144.02-.247.103a.374.374 0 0 0-.124.288c0 .103.02.165.103.268.226.226.37.164.514 0 .103-.103.124-.165.124-.268 0-.123-.02-.185-.124-.268-.082-.102-.144-.123-.246-.123zM87.938 12.33H90.2v3.149c.905-1.194 1.892-2.1 3.002-2.696 1.09-.597 2.283-.885 3.579-.885 1.316 0 2.468.329 3.475 1.008a5.875 5.875 0 0 1 2.242 2.696c.473 1.133.72 2.882.72 5.27v9.015h-2.262V21.53c0-2.017-.083-3.375-.247-4.034-.267-1.153-.761-2.038-1.501-2.614-.74-.576-1.707-.885-2.9-.885-1.357 0-2.591.453-3.66 1.358-1.07.906-1.79 2.018-2.14 3.355-.205.865-.329 2.45-.329 4.776v6.422h-2.262V12.33h.02z" fill="#000"/><path d="M104.678 31.348h-5.224v-9.84c0-2.47-.123-3.375-.205-3.683-.185-.865-.514-1.441-.987-1.812-.453-.39-1.11-.576-1.954-.576-1.008 0-1.913.33-2.715 1.008-.843.7-1.378 1.544-1.645 2.573-.123.494-.267 1.688-.267 4.405v7.904h-5.224v-20.48h5.224v1.111c.267-.185.534-.35.802-.494 2.673-1.461 6.108-1.44 8.576.165a7.435 7.435 0 0 1 2.796 3.355c.576 1.317.844 3.232.844 5.846v10.518h-.021zM69.717 3.376c0 1.05-.864 1.914-1.913 1.914a1.91 1.91 0 0 1-1.912-1.914 1.91 1.91 0 0 1 1.912-1.914c1.05 0 1.913.864 1.913 1.914z" fill="#000"/><path d="M67.804 6.792a3.398 3.398 0 0 1-3.393-3.396A3.398 3.398 0 0 1 67.804 0a3.398 3.398 0 0 1 3.393 3.396c0 1.853-1.522 3.396-3.393 3.396zm0-3.849a.435.435 0 0 0-.432.433c0 .247.206.432.432.432a.435.435 0 0 0 .432-.432.435.435 0 0 0-.432-.433z" fill="#000"/></svg>